<svg width="100" height="100" viewBox="0 0 100 100" fill="none" xmlns="http://www.w3.org/2000/svg">
<rect width="100" height="100" rx="50" fill="white"/>
<path d="M44.2188 28.625L47.3438 57.75L67.5 28.625H82.3438L81.9688 29.7812C79.9271 29.7812 78.375 30.2188 77.3125 31.0938C76.25 31.9688 75.3438 33.6979 74.5938 36.2812L66.7812 63.4062C66.2812 65.1146 66.0312 66.3854 66.0312 67.2188C66.0312 67.9896 66.3438 68.6146 66.9688 69.0938C67.5938 69.5521 68.8229 69.8021 70.6562 69.8438L70.375 71H49.2188L49.5938 69.8438C51.8646 69.8438 53.5417 69.4167 54.625 68.5625C55.7083 67.6875 56.625 65.9688 57.375 63.4062L65.3438 35.9375L41.0938 71H39.8125L36 35.25L27.9062 63.4062C27.5729 64.5521 27.4062 65.5104 27.4062 66.2812C27.4062 67.3229 27.7604 68.1667 28.4688 68.8125C29.1979 69.4375 30.4271 69.7812 32.1562 69.8438L31.8438 71H17.8438L18.125 69.8438C19.8125 69.7812 21.1042 69.4271 22 68.7812C23.5833 67.6146 24.7292 65.8229 25.4375 63.4062L34.5938 32.0938C33.7188 31.1354 32.9271 30.5104 32.2188 30.2188C31.5312 29.9271 30.3646 29.7812 28.7188 29.7812L29.0938 28.625H44.2188Z" fill="black"/>
</svg>
